<svg xmlns="http://www.w3.org/2000/svg" viewBox="0 0 510 96" width="510" height="96"><g transform="translate(0 8) scale(1.25)"><rect width="64" height="64" rx="16" fill="#151e25"/><path d="M14 46 29 17h7l15 29h-9l-3-7H26l4-8h5l-3-7-11 22z" fill="#79e2ea"/><path d="M46 17h6v6h-6z" fill="#f1f4f5"/></g><g fill="#f1f4f5" aria-label="Ángel Garzón"><path d="M18 0 266.5 730H498.5L755 0H608.5L392 633L442.5 611H317.5L370 633L160 0ZM192 193.5 236.5 313.5H532.5L577 193.5ZM306 786 431.5 960.0H583.5L437 786Z" transform="translate(100.000 62) scale(0.044000 -0.044000)"/><path d="M79 0V543H189V310H179Q179 392.5 200.75 448.0Q222.5 503.5 266.25 531.75Q310 560 374.5 560H380.5Q478 560 528.0 497.25Q578 434.5 578 310.5V0H439V323Q439 373 410.25 404.0Q381.5 435 331.5 435Q280.5 435 249.25 403.25Q218 371.5 218 319V0Z" transform="translate(134.012 62) scale(0.044000 -0.044000)"/><path d="M290.5 -214.5Q251.5 -214.5 211.0 -211.5Q170.5 -208.5 136 -203.5V-87Q171.5 -91.5 212.75 -95.0Q254 -98.5 289.5 -98.5Q357 -98.5 398.5 -82.25Q440 -66 459.25 -31.75Q478.5 2.5 478.5 56V163L508.5 231Q506 155.5 478.0 103.0Q450 50.5 402.0 23.25Q354 -4 291 -4Q235 -4 189.25 16.75Q143.5 37.5 111.0 74.75Q78.5 112 60.75 161.75Q43 211.5 43 268.5V289.5Q43 347 61.5 396.5Q80 446 114.0 482.75Q148 519.5 195.0 539.75Q242 560 299 560Q365.5 560 415.0 531.0Q464.5 502 492.75 446.75Q521 391.5 523.5 312L499.5 308V543H609.5V64Q609.5 -35 575.75 -96.25Q542 -157.5 471.5 -186.0Q401 -214.5 290.5 -214.5ZM330.5 115Q371 115 404.0 133.0Q437 151 456.75 185.0Q476.5 219 476.5 266.5V301.5Q476.5 348 456.0 380.0Q435.5 412 402.5 428.5Q369.5 445 331 445Q287 445 253.25 424.5Q219.5 404 200.75 366.75Q182 329.5 182 279Q182 228.5 201.0 191.5Q220 154.5 253.5 134.75Q287 115 330.5 115Z" transform="translate(162.524 62) scale(0.044000 -0.044000)"/><path d="M322 -19Q252 -19 199.5 5.0Q147 29 112.5 69.25Q78 109.5 60.5 159.5Q43 209.5 43 262V281Q43 335 60.5 385.25Q78 435.5 112.25 475.25Q146.5 515 197.75 538.5Q249 562 316 562Q404 562 463.25 523.25Q522.5 484.5 552.75 422.25Q583 360 583 288V237.5H102V322.5H495.5L453 281Q453 333 437.75 370.0Q422.5 407 392.25 427.0Q362 447 316 447Q269.5 447 237.5 425.75Q205.5 404.5 189.25 365.25Q173 326 173 271Q173 219.5 188.75 180.0Q204.5 140.5 237.5 118.25Q270.5 96 322 96Q372.5 96 404.5 116.5Q436.5 137 445.5 166.5H573.5Q562 111 527.75 69.0Q493.5 27 441.25 4.0Q389 -19 322 -19Z" transform="translate(192.576 62) scale(0.044000 -0.044000)"/><path d="M86 0V730H225V0ZM18 626V730H225V626Z" transform="translate(219.856 62) scale(0.044000 -0.044000)"/><path d="" transform="translate(233.276 62) scale(0.044000 -0.044000)"/><path d="M429.5 -19Q335.5 -19 264.0 12.25Q192.5 43.5 144.25 97.0Q96 150.5 71.5 218.25Q47 286 47 358.5V380.5Q47 449.5 70.75 515.5Q94.5 581.5 141.0 634.75Q187.5 688 256.0 719.5Q324.5 751 413.5 751Q509.5 751 583.75 715.25Q658 679.5 703.0 616.0Q748 552.5 755.5 469H612.5Q606 516 578.0 549.5Q550 583 507.5 601.0Q465 619 413.5 619Q362.5 619 321.25 601.0Q280 583 251.0 549.75Q222 516.5 206.5 470.5Q191 424.5 191 368.5Q191 308 207.75 260.0Q224.5 212 255.5 178.5Q286.5 145 330.75 127.5Q375 110 429.5 110Q503 110 557.75 140.25Q612.5 170.5 638 219.5L613 105V293H744V131Q696.5 59.5 615.75 20.25Q535 -19 429.5 -19ZM406.5 265V371H805V265Z" transform="translate(242.780 62) scale(0.044000 -0.044000)"/><path d="M407.5 0V161H384.5V340Q384.5 386.5 361.5 409.75Q338.5 433 291 433Q266 433 231.0 432.0Q196 431 160.5 429.5Q125 428 97 426V544Q120 546 148.75 547.75Q177.5 549.5 208.25 550.25Q239 551 266 551Q349.5 551 405.25 528.75Q461 506.5 489.25 459.5Q517.5 412.5 517.5 336.5V0ZM232.5 -14Q173.5 -14 129.25 6.75Q85 27.5 60.5 66.75Q36 106 36 161Q36 220.5 65.25 258.75Q94.5 297 148.0 315.75Q201.5 334.5 273.5 334.5H399.5V251.5H271.5Q224 251.5 198.5 228.25Q173 205 173 167.5Q173 130.5 198.5 107.75Q224 85 271.5 85Q300.5 85 325.25 95.5Q350 106 366.25 131.25Q382.5 156.5 384.5 201L418.5 162Q413.5 105 391.0 66.0Q368.5 27 329.0 6.5Q289.5 -14 232.5 -14Z" transform="translate(279.388 62) scale(0.044000 -0.044000)"/><path d="M79 0V543H189V313H186Q186 429.5 236.0 489.75Q286 550 383 550H403V429H365Q294.5 429 256.25 391.25Q218 353.5 218 282.5V0Z" transform="translate(305.260 62) scale(0.044000 -0.044000)"/><path d="M44 0V110L312 432V416L291 444L307.5 436H43V543H457V433L189 111V126L211 97.5L194 107H468V0Z" transform="translate(323.608 62) scale(0.044000 -0.044000)"/><path d="M339.5 -19Q268 -19 213.0 4.0Q158 27 120.0 66.25Q82 105.5 62.5 155.5Q43 205.5 43 260V281Q43 336.5 63.25 387.25Q83.5 438 122.0 477.25Q160.5 516.5 215.5 539.25Q270.5 562 339.5 562Q409 562 463.75 539.25Q518.5 516.5 557.0 477.25Q595.5 438 615.75 387.25Q636 336.5 636 281V260Q636 205.5 616.5 155.5Q597 105.5 559.0 66.25Q521 27 466.0 4.0Q411 -19 339.5 -19ZM339.5 100Q390.5 100 425.5 122.25Q460.5 144.5 478.75 183.25Q497 222 497 270.5Q497 320.5 478.25 359.25Q459.5 398 424.25 420.5Q389 443 339.5 443Q290.5 443 255.0 420.5Q219.5 398 200.75 359.25Q182 320.5 182 270.5Q182 222 200.25 183.25Q218.5 144.5 253.75 122.25Q289 100 339.5 100ZM270.5 612 359.5 817H503.0L389.5 612Z" transform="translate(345.476 62) scale(0.044000 -0.044000)"/><path d="M79 0V543H189V310H179Q179 392.5 200.75 448.0Q222.5 503.5 266.25 531.75Q310 560 374.5 560H380.5Q478 560 528.0 497.25Q578 434.5 578 310.5V0H439V323Q439 373 410.25 404.0Q381.5 435 331.5 435Q280.5 435 249.25 403.25Q218 371.5 218 319V0Z" transform="translate(375.352 62) scale(0.044000 -0.044000)"/></g></svg>